<svg viewBox="0 0 947 85" xmlns="http://www.w3.org/2000/svg" fill="orange"><path d="M0 85V0h8.6v85H0Zm26 0V0h4.2v85H26Zm12.9 0V0h4.3v85h-4.3ZM47.5 85V0h8.7v85h-8.7Zm13 0V0H69v85h-8.6Zm13 0V0h17.2v85H73.4ZM95 85V0h8.7v85H95Zm17.3 0V0h4.3v85h-4.3Zm8.7 0V0h4.3v85H121ZM142.6 85V0h4.3v85h-4.3Zm8.6 0V0h8.6v85h-8.6Zm17.3 0V0h4.3v85h-4.3ZM190 85V0h17.4v85H190Zm21.7 0V0h13v85h-13Zm17.3 0V0h4.3v85H229ZM237.6 85V0h4.3v85h-4.3Zm13 0V0h4.3v85h-4.3Zm8.6 0V0h8.6v85h-8.6ZM285.1 85V0h4.3v85h-4.3Zm21.6 0V0h4.3v85h-4.3Zm8.7 0V0h8.6v85h-8.6ZM332.6 85V0h4.4v85h-4.4Zm13 0V0h4.3v85h-4.3Zm8.6 0V0h17.3v85h-17.3ZM380.2 85V0h4.3v85h-4.3Zm13 0V0h17.2v85h-17.3Zm25.8 0V0h4.4v85H419ZM427.7 85V0h4.3v85h-4.3Zm13 0V0h4.3v85h-4.4Zm8.6 0V0h8.6v85h-8.6ZM475.2 85V0h4.3v85h-4.3Zm13 0V0h4.3v85h-4.3Zm13 0V0h17.2v85h-17.3ZM522.7 85V0h4.3v85h-4.3Zm13 0V0h4.3v85h-4.3Zm13 0V0h17.2v85h-17.3ZM570.2 85V0h4.4v85h-4.4Zm21.6 0V0h8.7v85h-8.7Zm13 0V0h4.3v85h-4.3ZM617.8 85V0h4.3v85h-4.3Zm8.6 0V0h8.6v85h-8.6Zm17.3 0V0h4.3v85h-4.3ZM665.3 85V0h4.3v85h-4.3Zm13 0V0h8.6v85h-8.7Zm17.2 0V0h13v85h-13ZM712.8 85V0h4.3v85h-4.3Zm21.6 0V0h4.3v85h-4.3Zm8.6 0V0h8.7v85H743ZM760.3 85V0h4.3v85h-4.3Zm17.3 0V0h17.3v85h-17.3Zm21.6 0V0h4.3v85h-4.3ZM807.8 85V0h4.4v85h-4.4Zm13 0V0h8.6v85h-8.6Zm17.3 0V0h13v85h-13ZM855.4 85V0h4.3v85h-4.3Zm13 0V0h17.2v85h-17.3Zm25.8 0V0h4.4v85h-4.4ZM902.9 85V0h8.6v85H903Zm25.9 0V0h4.3v85h-4.3Zm13 0V0h4.3v85h-4.3Z"/></svg>
