<svg id="icon" viewBox="0 0 28 28" xmlns="http://www.w3.org/2000/svg" fill="currentColor"><path d="M26 23.5v-12a8.4 8.4 0 01-1.08 1.03 216.05 216.05 0 00-6.65 5.28c-1.18.99-2.63 2.19-4.25 2.19h-.03c-1.63 0-3.08-1.2-4.25-2.19a213.06 213.06 0 00-6.66-5.28c-.4-.31-.75-.65-1.08-1.03v12c0 .27.24.5.5.5h23c.27 0 .5-.23.5-.5zm0-16.42c0-.4.1-1.08-.5-1.08h-23c-.27 0-.5.23-.5.5 0 1.78.9 3.33 2.3 4.44 2.1 1.64 4.19 3.3 6.26 4.95C11.4 16.56 12.9 18 14 18h.03c1.09 0 2.59-1.44 3.42-2.1a946.2 946.2 0 016.26-4.96c1.02-.8 2.3-2.53 2.3-3.86zm2-.58v17a2.5 2.5 0 01-2.5 2.5h-23A2.5 2.5 0 010 23.5v-17A2.5 2.5 0 012.5 4h23A2.5 2.5 0 0128 6.5z"/></svg>
